<svg width="21" height="20" viewBox="0 0 21 20" fill="none" xmlns="http://www.w3.org/2000/svg">
<path d="M20.9524 14.1381C20.9524 17.1641 18.6057 19.6153 15.6829 19.6261H15.6724H5.29048C2.3781 19.6261 0 17.1858 0 14.1597V14.1489C0 14.1489 0.00628571 9.34846 0.0146667 6.93415C0.0157143 6.48078 0.518571 6.22699 0.861143 6.50898C3.35029 8.55345 7.80162 12.2812 7.85714 12.33C8.60095 12.9472 9.54381 13.2953 10.5076 13.2953C11.4714 13.2953 12.4143 12.9472 13.1581 12.3181C13.2136 12.2801 17.5654 8.66408 20.0923 6.58599C20.4359 6.30291 20.9409 6.5567 20.9419 7.00898C20.9524 9.40486 20.9524 14.1381 20.9524 14.1381Z" fill="#84CBFF"/>
<path d="M20.4033 3.00129C19.496 1.23123 17.7109 0.101074 15.7456 0.101074H5.29033C3.325 0.101074 1.53985 1.23123 0.632617 3.00129C0.429379 3.39717 0.52576 3.89067 0.864141 4.17049L8.64271 10.6119C9.18747 11.0675 9.84747 11.2941 10.5075 11.2941C10.5117 11.2941 10.5148 11.2941 10.5179 11.2941C10.5211 11.2941 10.5253 11.2941 10.5284 11.2941C11.1884 11.2941 11.8484 11.0675 12.3932 10.6119L20.1718 4.17049C20.5101 3.89067 20.6065 3.39717 20.4033 3.00129Z" fill="white"/>
</svg>
