<svg width="22" height="22" viewBox="0 0 22 22" fill="none" xmlns="http://www.w3.org/2000/svg">
<path d="M8.06738 15.3184C8.06738 15.2539 8.00293 15.1895 7.90625 15.1895C7.80957 15.1895 7.74512 15.2539 7.74512 15.3184C7.74512 15.3828 7.80957 15.4473 7.90625 15.415C8.00293 15.415 8.06738 15.3828 8.06738 15.3184ZM7.06836 15.1572C7.06836 15.2217 7.13281 15.3184 7.22949 15.3184C7.29395 15.3506 7.39062 15.3184 7.42285 15.2539C7.42285 15.1895 7.39062 15.125 7.29395 15.0928C7.19727 15.0605 7.10059 15.0928 7.06836 15.1572ZM8.51855 15.125C8.42188 15.125 8.35742 15.1895 8.35742 15.2861C8.35742 15.3506 8.4541 15.3828 8.55078 15.3506C8.64746 15.3184 8.71191 15.2861 8.67969 15.2217C8.67969 15.1572 8.58301 15.0928 8.51855 15.125ZM10.6133 2.75C6.16602 2.75 2.75 6.16602 2.75 10.6133C2.75 14.1904 4.97363 17.252 8.19629 18.3477C8.61523 18.4121 8.74414 18.1543 8.74414 17.9609C8.74414 17.7354 8.74414 16.6396 8.74414 15.9629C8.74414 15.9629 6.48828 16.4463 6.00488 14.9961C6.00488 14.9961 5.65039 14.0615 5.13477 13.8359C5.13477 13.8359 4.39355 13.3203 5.16699 13.3203C5.16699 13.3203 5.97266 13.3848 6.42383 14.1582C7.13281 15.415 8.29297 15.0605 8.77637 14.835C8.84082 14.3193 9.03418 13.9648 9.29199 13.7393C7.4873 13.5459 5.65039 13.2881 5.65039 10.1943C5.65039 9.29199 5.9082 8.87305 6.42383 8.29297C6.32715 8.06738 6.06934 7.22949 6.52051 6.10156C7.16504 5.9082 8.74414 6.97168 8.74414 6.97168C9.38867 6.77832 10.0654 6.71387 10.7422 6.71387C11.4512 6.71387 12.1279 6.77832 12.7725 6.97168C12.7725 6.97168 14.3193 5.87598 14.9961 6.10156C15.4473 7.22949 15.1572 8.06738 15.0928 8.29297C15.6084 8.87305 15.9307 9.29199 15.9307 10.1943C15.9307 13.2881 14.0293 13.5459 12.2246 13.7393C12.5146 13.9971 12.7725 14.4805 12.7725 15.2539C12.7725 16.3174 12.7402 17.6709 12.7402 17.9287C12.7402 18.1543 12.9014 18.4121 13.3203 18.3154C16.543 17.252 18.7344 14.1904 18.7344 10.6133C18.7344 6.16602 15.0928 2.75 10.6133 2.75ZM5.87598 13.8682C5.81152 13.9004 5.84375 13.9971 5.87598 14.0615C5.94043 14.0938 6.00488 14.126 6.06934 14.0938C6.10156 14.0615 6.10156 13.9648 6.03711 13.9004C5.97266 13.8682 5.9082 13.8359 5.87598 13.8682ZM5.52148 13.6104C5.48926 13.6748 5.52148 13.707 5.58594 13.7393C5.65039 13.7715 5.71484 13.7715 5.74707 13.707C5.74707 13.6748 5.71484 13.6426 5.65039 13.6104C5.58594 13.5781 5.55371 13.5781 5.52148 13.6104ZM6.55273 14.7705C6.52051 14.8027 6.52051 14.8994 6.61719 14.9639C6.68164 15.0283 6.77832 15.0605 6.81055 14.9961C6.84277 14.9639 6.84277 14.8672 6.77832 14.8027C6.71387 14.7383 6.61719 14.7061 6.55273 14.7705ZM6.19824 14.2871C6.13379 14.3193 6.13379 14.416 6.19824 14.4805C6.2627 14.5449 6.32715 14.5771 6.3916 14.5449C6.42383 14.5127 6.42383 14.416 6.3916 14.3516C6.32715 14.2871 6.2627 14.2549 6.19824 14.2871Z" fill="#6B7280"/>
</svg>
