<svg width="23" height="22" viewBox="0 0 23 22" fill="none" xmlns="http://www.w3.org/2000/svg">
<path d="M15.916 1.83331H6.74935C4.21804 1.83331 2.16602 3.88534 2.16602 6.41665V15.5833C2.16602 18.1146 4.21804 20.1666 6.74935 20.1666H15.916C18.4473 20.1666 20.4993 18.1146 20.4993 15.5833V6.41665C20.4993 3.88534 18.4473 1.83331 15.916 1.83331Z" stroke="#6B7280" stroke-width="2" stroke-linecap="round" stroke-linejoin="round"/>
<path d="M14.9997 10.4225C15.1129 11.1854 14.9826 11.9645 14.6273 12.6491C14.2721 13.3336 13.7101 13.8888 13.0212 14.2355C12.3323 14.5822 11.5516 14.7029 10.7902 14.5804C10.0288 14.4579 9.32535 14.0984 8.78 13.553C8.23466 13.0077 7.87515 12.3043 7.75263 11.5428C7.6301 10.7814 7.75079 10.0007 8.09753 9.31181C8.44427 8.62292 8.9994 8.0609 9.68397 7.70569C10.3685 7.35048 11.1477 7.22018 11.9106 7.3333C12.6887 7.4487 13.4092 7.81131 13.9655 8.36759C14.5217 8.92386 14.8843 9.64429 14.9997 10.4225Z" stroke="#6B7280" stroke-width="2" stroke-linecap="round" stroke-linejoin="round"/>
<path d="M16.375 5.95831H16.385" stroke="#6B7280" stroke-width="2" stroke-linecap="round" stroke-linejoin="round"/>
</svg>
