<svg width="22" height="22" viewBox="0 0 22 22" fill="none" xmlns="http://www.w3.org/2000/svg">
<rect width="22" height="22" rx="7" fill="#6B7280"/>
<path d="M5.368 7.144C4.888 7.144 4.49333 7.00533 4.184 6.728C3.88533 6.44 3.736 6.088 3.736 5.672C3.736 5.24533 3.88533 4.89333 4.184 4.616C4.49333 4.328 4.888 4.184 5.368 4.184C5.83733 4.184 6.22133 4.328 6.52 4.616C6.82933 4.89333 6.984 5.24533 6.984 5.672C6.984 6.088 6.82933 6.44 6.52 6.728C6.22133 7.00533 5.83733 7.144 5.368 7.144ZM6.728 8.072V17H3.992V8.072H6.728ZM14.1508 7.976C15.1961 7.976 16.0281 8.31733 16.6468 9C17.2761 9.672 17.5908 10.6 17.5908 11.784V17H14.8708V12.152C14.8708 11.5547 14.7161 11.0907 14.4068 10.76C14.0974 10.4293 13.6814 10.264 13.1588 10.264C12.6361 10.264 12.2201 10.4293 11.9108 10.76C11.6014 11.0907 11.4468 11.5547 11.4468 12.152V17H8.71075V8.072H11.4468V9.256C11.7241 8.86133 12.0974 8.552 12.5668 8.328C13.0361 8.09333 13.5641 7.976 14.1508 7.976Z" fill="white"/>
</svg>
