<svg width="21" height="32" viewBox="0 0 21 32" fill="none" xmlns="http://www.w3.org/2000/svg">
<path d="M5.28542 1.75759C8.55528 -0.209405 12.5745 -0.175025 15.8136 1.84765C19.021 3.91152 20.9703 7.59491 20.9523 11.5572C20.8775 15.4935 18.7872 19.1937 16.1744 22.054C14.6664 23.7124 12.9794 25.1788 11.1479 26.4233C10.9593 26.5363 10.7527 26.6119 10.5383 26.6464C10.3319 26.6373 10.131 26.5742 9.95351 26.4627C7.15737 24.5927 4.70431 22.2058 2.71233 19.4167C1.0455 17.0885 0.0985278 14.2758 0 11.3604L0.00746237 10.9363C0.143557 7.13081 2.13235 3.65433 5.28542 1.75759ZM11.834 8.10715C10.5047 7.52218 8.97217 7.83999 7.9519 8.91219C6.93163 9.98439 6.62491 11.5995 7.17494 13.0034C7.72497 14.4072 9.02326 15.3229 10.4636 15.323C11.4072 15.33 12.3143 14.9387 12.9827 14.2362C13.6511 13.5338 14.0253 12.5786 14.022 11.5835C14.027 10.0645 13.1633 8.69212 11.834 8.10715Z" fill="white"/>
<path d="M10.4762 31.2941C14.6089 31.2941 17.9592 30.6004 17.9592 29.7447C17.9592 28.889 14.6089 28.1953 10.4762 28.1953C6.34341 28.1953 2.99316 28.889 2.99316 29.7447C2.99316 30.6004 6.34341 31.2941 10.4762 31.2941Z" fill="#84CBFF"/>
</svg>
