<svg width="45" height="45" viewBox="0 0 45 45" fill="none" xmlns="http://www.w3.org/2000/svg">
<path d="M21.618 40.147L19.4121 34.4117" stroke="black" stroke-opacity="0.85" stroke-width="2" stroke-linecap="round" stroke-linejoin="round"/>
<path d="M38.375 41.25C38.9273 41.25 39.375 40.8023 39.375 40.25V12.25C39.375 11.6977 38.9273 11.25 38.375 11.25H25.5078C24.9063 11.25 24.4409 11.7772 24.5155 12.374L25.3125 18.75L26.25 26.25L27.1319 33.305C27.1673 33.5881 27.08 33.8728 26.8922 34.0875L22.0762 39.5915C21.5104 40.2381 21.9696 41.25 22.8288 41.25H38.375Z" stroke="black" stroke-opacity="0.85" stroke-width="2" stroke-linecap="round" stroke-linejoin="round"/>
<path d="M26.25 26.25H30.9375" stroke="black" stroke-opacity="0.85" stroke-width="2" stroke-linecap="round" stroke-linejoin="round"/>
<path d="M25.3125 18.75H30.9375" stroke="black" stroke-opacity="0.85" stroke-width="2" stroke-linecap="round" stroke-linejoin="round"/>
<path d="M5.625 4.75C5.625 4.19772 6.07272 3.75 6.625 3.75H22.5547C23.059 3.75 23.4844 4.12554 23.547 4.62597L24.375 11.25L25.3125 18.75L26.25 26.25L27.047 32.626C27.1216 33.2228 26.6562 33.75 26.0547 33.75H19.6875H6.625C6.07271 33.75 5.625 33.3023 5.625 32.75V4.75Z" stroke="black" stroke-opacity="0.85" stroke-width="2" stroke-linecap="round" stroke-linejoin="round"/>
<path d="M11.25 11.25H17.8125" stroke="black" stroke-opacity="0.85" stroke-width="2" stroke-linecap="round" stroke-linejoin="round"/>
<path d="M11.25 18.75H18.75" stroke="black" stroke-opacity="0.85" stroke-width="2" stroke-linecap="round" stroke-linejoin="round"/>
<path d="M11.25 26.25H19.6875" stroke="black" stroke-opacity="0.85" stroke-width="2" stroke-linecap="round" stroke-linejoin="round"/>
</svg>
