<svg width="20" height="21" viewBox="0 0 20 21" fill="none" xmlns="http://www.w3.org/2000/svg">
<path d="M17.2583 16.5057L14.425 13.6807C15.3392 12.516 15.8352 11.0779 15.8333 9.59733C15.8333 8.27879 15.4423 6.98986 14.7098 5.89353C13.9773 4.7972 12.9361 3.94272 11.7179 3.43814C10.4997 2.93355 9.15927 2.80153 7.86607 3.05877C6.57286 3.316 5.38497 3.95094 4.45262 4.88329C3.52027 5.81564 2.88534 7.00353 2.6281 8.29673C2.37087 9.58994 2.50289 10.9304 3.00747 12.1486C3.51206 13.3667 4.36654 14.4079 5.46287 15.1405C6.5592 15.873 7.84813 16.264 9.16667 16.264C10.6472 16.2658 12.0854 15.7698 13.25 14.8557L16.075 17.689C16.1525 17.7671 16.2446 17.8291 16.3462 17.8714C16.4477 17.9137 16.5567 17.9355 16.6667 17.9355C16.7767 17.9355 16.8856 17.9137 16.9872 17.8714C17.0887 17.8291 17.1809 17.7671 17.2583 17.689C17.3364 17.6115 17.3984 17.5194 17.4407 17.4178C17.4831 17.3163 17.5048 17.2073 17.5048 17.0973C17.5048 16.9873 17.4831 16.8784 17.4407 16.7769C17.3984 16.6753 17.3364 16.5831 17.2583 16.5057ZM4.16667 9.59733C4.16667 8.60843 4.45991 7.64173 5.00932 6.81948C5.55873 5.99724 6.33962 5.35637 7.25325 4.97794C8.16688 4.5995 9.17222 4.50048 10.1421 4.69341C11.112 4.88633 12.0029 5.36254 12.7022 6.0618C13.4015 6.76106 13.8777 7.65198 14.0706 8.62188C14.2635 9.59179 14.1645 10.5971 13.7861 11.5108C13.4076 12.4244 12.7668 13.2053 11.9445 13.7547C11.1223 14.3041 10.1556 14.5973 9.16667 14.5973C7.84059 14.5973 6.56882 14.0705 5.63114 13.1329C4.69345 12.1952 4.16667 10.9234 4.16667 9.59733Z" fill="black"/>
</svg>
