<svg width="48" height="48" viewBox="0 0 48 48" fill="none" xmlns="http://www.w3.org/2000/svg">
<path d="M19.939 8.38663C16.6129 16.7018 13.0259 20.2738 4.79764 23.5389C4.37445 23.7068 4.36554 24.3155 4.78364 24.4958C12.7377 27.9249 16.2728 31.5655 19.9105 39.6826C20.0932 40.0904 20.6853 40.0814 20.8558 39.6684C24.2996 31.3292 27.8236 27.692 35.9991 24.4598C36.4229 24.2923 36.4327 23.683 36.0142 23.5027C27.9257 20.0185 24.3831 16.4609 20.8934 8.37354C20.7135 7.95674 20.1076 7.96515 19.939 8.38663Z" fill="#FFCA05"/>
<path d="M32.6143 9.60015L36.0001 6.21436L39.3858 9.60015L36.0001 12.9859L32.6143 9.60015Z" stroke="#FFCA05" stroke-width="2"/>
<path d="M17.3532 30.5281C14.7484 27.9013 11.6021 25.9111 7.43555 24.0386C11.7518 22.2499 14.9988 20.3155 17.628 17.6871C20.2595 15.0565 22.2143 11.7886 24.0356 7.42407C25.9353 11.6613 27.916 14.8529 30.5264 17.4664C33.1362 20.0794 36.3234 22.0624 40.5599 23.9597C36.2726 25.7345 33.0579 27.6779 30.4396 30.32C27.8129 32.9707 25.843 36.2677 23.9622 40.6561C21.9849 36.3896 19.9665 33.1635 17.3532 30.5281Z" stroke="#1A1A1A" stroke-width="2"/>
<path d="M6.21436 38.4002L9.60015 35.0144L12.9859 38.4002L9.60015 41.786L6.21436 38.4002Z" stroke="#FFCA05" stroke-width="2"/>
</svg>
