<svg width="21" height="23" viewBox="0 0 21 23" fill="none" xmlns="http://www.w3.org/2000/svg">
<path d="M13.0099 4.77034C12.5111 4.67495 12.0531 5.00447 11.9581 5.50852C11.8632 6.01256 12.1825 6.50467 12.6677 6.60331C14.1284 6.89815 15.2564 8.06882 15.5423 9.58637V9.58745C15.6237 10.0243 15.9951 10.3419 16.4229 10.3419C16.4803 10.3419 16.5377 10.3365 16.5961 10.3256C17.0813 10.2248 17.4006 9.73378 17.3057 9.22866C16.8789 6.9621 15.1938 5.21151 13.0099 4.77034Z" fill="#0093FF"/>
<path d="M12.9433 0.992488C12.7096 0.957801 12.4748 1.02934 12.2881 1.18326C12.0961 1.33935 11.9761 1.56482 11.95 1.81738C11.8947 2.32792 12.2505 2.78969 12.743 2.84714C16.1393 3.23953 18.7792 5.9787 19.1611 9.5059C19.2122 9.9785 19.5952 10.3351 20.0522 10.3351C20.0866 10.3351 20.12 10.333 20.1544 10.3286C20.3934 10.3015 20.6062 10.179 20.7565 9.98392C20.9057 9.78881 20.9735 9.546 20.9464 9.29778C20.4706 4.89691 17.1807 1.48135 12.9433 0.992488Z" fill="#0093FF"/>
<path fill-rule="evenodd" clip-rule="evenodd" d="M9.46272 12.8837C13.6422 17.2095 14.5903 12.2051 17.2514 14.9581C19.8168 17.6134 21.2913 18.1454 18.0409 21.5096C17.6338 21.8484 15.0469 25.9239 5.95586 16.5145C-3.13632 7.10401 0.797926 4.42311 1.12522 4.0017C4.38351 0.628168 4.88851 2.1636 7.45398 4.8189C10.1151 7.57314 5.28328 8.55796 9.46272 12.8837Z" fill="white"/>
</svg>
