<svg width="22" height="22" viewBox="0 0 22 22" fill="none" xmlns="http://www.w3.org/2000/svg">
<path d="M17.542 7.90265C18.1865 7.41925 18.7666 6.83917 19.2178 6.16241C18.6377 6.42023 17.9609 6.61359 17.2842 6.67804C17.9932 6.25909 18.5088 5.61456 18.7666 4.8089C18.1221 5.19562 17.3809 5.48566 16.6396 5.64679C15.9951 4.97003 15.125 4.58331 14.1582 4.58331C12.2891 4.58331 10.7744 6.09796 10.7744 7.9671C10.7744 8.22491 10.8066 8.48273 10.8711 8.74054C8.06738 8.57941 5.55371 7.22589 3.87793 5.19562C3.58789 5.67902 3.42676 6.25909 3.42676 6.90363C3.42676 8.06378 4.00684 9.09503 4.94141 9.70734C4.39355 9.67511 3.8457 9.5462 3.39453 9.28839V9.32062C3.39453 10.9642 4.55469 12.3177 6.10156 12.64C5.84375 12.7044 5.52148 12.7689 5.23145 12.7689C5.00586 12.7689 4.8125 12.7366 4.58691 12.7044C5.00586 14.0579 6.2627 15.0247 7.74512 15.0569C6.58496 15.9593 5.13477 16.5071 3.55566 16.5071C3.26562 16.5071 3.00781 16.4749 2.75 16.4427C4.23242 17.4095 6.00488 17.9573 7.93848 17.9573C14.1582 17.9573 17.542 12.8333 17.542 8.35382C17.542 8.19269 17.542 8.06378 17.542 7.90265Z" fill="#6B7280"/>
</svg>
